<?xml version="1.0" standalone="no"?>
<!DOCTYPE svg PUBLIC "-//W3C//DTD SVG 20010904//EN"
 "http://www.w3.org/TR/2001/REC-SVG-20010904/DTD/svg10.dtd">
<svg version="1.0" xmlns="http://www.w3.org/2000/svg"
 width="615.000000pt" height="600.000000pt" viewBox="0 0 615.000000 600.000000"
 preserveAspectRatio="xMidYMid meet">

<g transform="translate(0.000000,600.000000) scale(0.100000,-0.100000)"
fill="#000000" stroke="none">
<path d="M2970 5304 c-308 -29 -573 -102 -753 -206 -95 -55 -197 -154 -237
-230 -26 -49 -34 -77 -38 -134 -2 -40 0 -86 6 -103 6 -17 9 -31 7 -31 -2 0
-27 12 -56 28 -74 38 -181 43 -274 12 -346 -115 -699 -699 -801 -1325 -22
-135 -25 -439 -6 -530 59 -272 173 -414 355 -440 l49 -7 -36 -30 c-19 -16 -50
-59 -68 -96 -31 -62 -33 -73 -33 -172 0 -84 5 -119 24 -175 58 -172 185 -364
358 -539 201 -204 382 -334 635 -461 359 -178 679 -222 869 -118 64 34 133
110 152 166 l14 42 22 -50 c84 -190 333 -260 643 -181 667 170 1359 809 1395
1291 9 115 -32 225 -110 296 l-30 28 39 6 c88 15 135 37 194 92 168 155 227
503 155 918 -107 614 -459 1179 -804 1290 -80 26 -202 18 -266 -18 -26 -15
-49 -26 -50 -25 -2 2 2 27 8 56 20 97 -17 210 -100 302 -141 157 -410 271
-763 325 -103 15 -412 27 -500 19z m-202 -273 c302 -47 435 -47 736 -1 244 38
433 22 566 -45 70 -36 146 -108 178 -170 33 -66 41 -171 17 -235 -38 -101 -32
-110 39 -56 103 78 233 94 342 41 83 -40 179 -140 231 -240 54 -105 78 -185
108 -368 51 -301 95 -439 226 -698 105 -211 139 -324 139 -468 0 -176 -67
-303 -194 -368 -40 -21 -70 -27 -138 -31 -49 -2 -88 -8 -88 -13 0 -4 12 -16
26 -26 118 -81 168 -166 169 -283 0 -90 -21 -155 -77 -241 -81 -127 -180 -204
-422 -332 -260 -136 -342 -196 -576 -422 -214 -207 -337 -278 -515 -300 -166
-20 -330 87 -369 242 -16 61 -41 70 -51 17 -18 -101 -111 -208 -208 -240 -105
-36 -250 -18 -381 48 -94 47 -149 90 -311 244 -238 227 -305 275 -592 427
-220 116 -307 186 -387 305 -138 209 -108 401 82 532 19 12 30 26 25 30 -4 5
-44 10 -89 12 -206 8 -326 157 -325 403 0 139 25 226 125 435 154 322 179 397
236 720 48 277 96 392 209 512 89 95 167 133 271 132 85 0 148 -23 206 -74 57
-49 71 -39 43 31 -28 74 -26 188 5 256 49 103 181 198 320 228 91 20 278 18
424 -4z"/>
<path d="M2898 4809 c-704 -91 -1299 -584 -1527 -1265 -71 -214 -86 -315 -86
-584 0 -256 6 -307 60 -505 162 -592 622 -1075 1206 -1268 469 -155 958 -121
1406 98 638 311 1043 960 1043 1672 0 928 -680 1713 -1601 1847 -116 17 -386
20 -501 5z m521 -55 c772 -113 1400 -749 1515 -1535 18 -122 21 -364 6 -489
-67 -545 -393 -1043 -875 -1335 -274 -166 -595 -254 -925 -255 -616 -1 -1181
305 -1523 825 -341 519 -388 1197 -123 1760 187 395 485 693 881 881 320 152
674 202 1044 148z"/>
<path d="M3078 4746 c-55 -20 -85 -42 -113 -84 -68 -105 -42 -242 61 -312 52
-34 154 -40 210 -12 177 91 163 341 -23 408 -48 17 -88 17 -135 0z m114 -26
c85 -24 143 -108 136 -196 -13 -158 -192 -230 -312 -125 -51 45 -71 146 -42
214 18 43 65 85 112 102 48 17 59 18 106 5z"/>
<path d="M3123 4698 c-4 -7 -8 -40 -8 -73 l0 -60 -60 0 c-81 0 -103 -15 -70
-48 11 -12 29 -14 76 -10 l62 6 -7 -66 c-6 -61 -5 -66 14 -72 37 -12 49 10 43
76 l-6 60 61 -3 c67 -3 88 8 77 41 -6 20 -11 21 -72 15 l-66 -7 6 62 c4 47 2
65 -10 76 -18 18 -29 19 -40 3z"/>
<path d="M2496 4563 c-47 -24 -50 -24 -62 -8 -18 25 -46 12 -39 -18 5 -18 0
-26 -20 -37 -24 -13 -28 -13 -41 4 -19 27 -46 14 -38 -18 5 -22 1 -28 -40 -48
-49 -23 -50 -25 -37 -47 7 -11 18 -8 55 14 26 15 50 25 53 21 10 -10 3 -91
-12 -143 -11 -37 -12 -49 -2 -55 19 -12 22 -10 33 20 10 27 11 27 42 -35 33
-65 38 -69 61 -54 10 7 4 27 -33 97 -25 48 -46 100 -46 116 0 16 -5 28 -12 28
-9 0 -9 3 1 9 8 5 11 16 8 25 -8 20 51 55 63 37 10 -18 41 -1 35 18 -4 13 7
23 45 41 52 24 55 27 42 46 -5 9 -21 5 -56 -13z"/>
<path d="M3890 4508 l-35 -41 -59 33 c-47 27 -60 30 -67 19 -13 -21 -13 -22
41 -52 28 -16 50 -30 50 -31 0 -2 -25 -21 -55 -41 -44 -31 -53 -41 -43 -52 6
-8 20 -12 30 -10 19 6 62 -39 52 -54 -8 -14 -81 -10 -120 6 -33 13 -35 13 -30
-1 3 -9 6 -22 6 -29 0 -23 109 -36 160 -20 17 5 25 -2 46 -49 25 -54 49 -71
60 -42 3 8 -7 38 -21 67 -25 48 -26 53 -10 62 10 5 34 24 54 42 l36 33 39 -20
c31 -16 40 -17 47 -6 5 7 9 15 9 18 0 3 -40 27 -90 53 -49 27 -90 51 -90 55 0
3 14 21 32 39 26 27 29 35 18 48 -17 21 -20 20 -60 -27z m19 -117 l33 -18 -43
-36 -43 -37 -23 27 c-28 35 -28 40 0 64 27 23 33 23 76 0z"/>
<path d="M2521 4419 c-31 -36 -35 -38 -47 -22 -7 10 -14 26 -14 37 0 12 -5 16
-16 12 -9 -3 -20 -6 -25 -6 -6 0 16 -50 47 -111 57 -109 58 -111 88 -105 49
10 115 54 122 81 8 34 -1 55 -26 55 -17 0 -20 -5 -18 -27 2 -22 -4 -31 -37
-50 -22 -12 -42 -23 -46 -23 -3 0 -14 19 -25 41 l-20 42 49 45 c44 42 47 47
31 59 -24 17 -24 17 -63 -28z"/>
<path d="M2040 4324 c-11 -13 -5 -24 45 -74 51 -52 57 -61 45 -75 -12 -15 -11
-16 16 -13 49 5 39 45 -29 117 -32 34 -60 61 -61 61 -2 0 -9 -7 -16 -16z"/>
<path d="M3030 4294 c-356 -42 -642 -180 -868 -419 -252 -266 -382 -610 -369
-975 5 -148 23 -249 67 -382 113 -338 357 -620 676 -781 277 -139 612 -177
922 -102 516 124 912 547 1009 1075 25 138 22 364 -6 497 -57 273 -180 503
-371 693 -192 192 -422 316 -688 370 -94 19 -301 32 -372 24z m268 -54 c200
-25 428 -114 590 -230 269 -190 464 -491 528 -812 18 -94 30 -356 16 -376 -7
-10 -27 -5 -90 24 l-82 37 0 63 0 64 -134 0 -135 0 -3 -52 -3 -53 -77 -3 -78
-3 0 56 0 55 -45 0 -45 0 0 63 0 63 81 24 c71 20 189 71 226 97 10 7 8 20 -6
58 l-19 50 -95 6 c-110 8 -158 27 -225 89 -24 22 -49 40 -57 40 -12 0 -15 16
-15 78 l0 77 93 29 c50 15 106 38 124 52 30 22 31 25 21 64 -7 28 -17 42 -32
45 -11 2 -48 9 -81 16 -33 6 -72 17 -87 25 -27 14 -94 111 -104 152 -5 17 -13
22 -40 22 -22 0 -34 -5 -34 -14 0 -34 -135 -49 -400 -43 -227 5 -310 16 -310
43 0 9 -11 14 -28 14 -24 0 -32 -8 -54 -54 -44 -90 -79 -121 -153 -140 -35 -9
-72 -16 -83 -16 -29 0 -50 -22 -57 -62 -7 -35 -5 -37 37 -62 24 -14 80 -35
126 -47 l82 -22 0 -79 c0 -65 -3 -78 -16 -78 -9 0 -38 -20 -65 -44 -70 -63
-106 -77 -216 -83 l-95 -6 -19 -45 c-11 -25 -18 -51 -15 -58 8 -20 143 -81
234 -105 l82 -22 0 -64 0 -63 -45 0 -45 0 0 -55 0 -55 -75 0 -75 0 0 55 0 55
-140 0 -140 0 0 -65 0 -65 -67 -30 c-37 -17 -78 -33 -92 -37 l-24 -6 6 174 c4
145 10 192 32 279 65 249 179 444 367 626 282 273 668 402 1056 354z m-480
-412 l3 -138 -26 0 -25 0 0 141 c0 140 0 140 23 137 21 -3 22 -6 25 -140z
m690 5 l-3 -138 -27 -3 -28 -3 0 134 c0 73 3 137 7 140 3 4 17 7 30 7 l24 0
-3 -137z m-588 -18 l0 -135 -25 0 -25 0 0 135 0 135 25 0 25 0 0 -135z m490 0
l0 -135 -25 0 -25 0 0 135 0 135 25 0 25 0 0 -135z m-684 -113 c-3 -2 -17 -2
-31 2 -24 6 -25 9 -25 81 0 65 4 81 28 117 l27 42 3 -119 c1 -65 0 -120 -2
-123z m294 108 l0 -130 -30 0 -30 0 0 130 0 130 30 0 30 0 0 -130z m98 -2 l-3
-133 -25 0 -25 0 -3 133 -3 132 31 0 31 0 -3 -132z m92 -3 l0 -135 -25 0 -25
0 0 135 0 135 25 0 25 0 0 -135z m100 5 l0 -130 -25 0 -25 0 0 130 0 130 25 0
25 0 0 -130z m287 -20 c-2 -80 -3 -85 -24 -88 -23 -3 -23 -2 -23 115 l0 118
25 -30 c23 -27 25 -37 22 -115z m-967 -15 c0 -56 -6 -63 -44 -49 -20 8 -23 90
-3 97 39 16 47 8 47 -48z m1054 49 c11 -4 16 -19 16 -49 0 -41 -11 -55 -41
-55 -5 0 -9 25 -9 55 0 55 4 61 34 49z m-1154 -49 l0 -35 -35 17 c-42 20 -45
40 -7 46 15 2 30 5 35 6 4 0 7 -15 7 -34z m1287 9 c3 -10 -37 -34 -57 -34 -6
0 -10 13 -10 29 0 27 2 28 32 22 17 -4 33 -11 35 -17z m-1007 -239 l0 -45 -40
0 -40 0 0 45 0 45 40 0 40 0 0 -45z m150 0 l0 -45 -45 0 -45 0 0 45 0 45 45 0
45 0 0 -45z m150 0 l0 -45 -45 0 -45 0 0 45 0 45 45 0 45 0 0 -45z m150 0 l0
-45 -45 0 -45 0 0 45 0 45 45 0 45 0 0 -45z m150 0 l0 -45 -45 0 -45 0 0 45 0
45 45 0 45 0 0 -45z m140 0 l0 -45 -40 0 -40 0 0 45 0 45 40 0 40 0 0 -45z
m-820 -240 l0 -135 -25 0 -25 0 0 135 0 135 25 0 25 0 0 -135z m100 -6 l0
-140 -27 3 -28 3 -3 138 -3 137 31 0 30 0 0 -141z m90 -4 c0 -81 -4 -145 -9
-145 -39 0 -41 9 -41 151 l0 139 25 0 25 0 0 -145z m100 0 l0 -145 -25 0 -25
0 0 145 0 145 25 0 25 0 0 -145z m100 0 l0 -145 -30 0 -30 0 0 145 0 145 30 0
30 0 0 -145z m90 0 l0 -145 -25 0 -25 0 0 145 0 145 25 0 25 0 0 -145z m100 0
l0 -145 -25 0 -25 0 0 145 0 145 25 0 25 0 0 -145z m100 6 c0 -131 -1 -140
-20 -146 -11 -3 -24 -3 -30 0 -6 4 -10 63 -10 146 l0 139 30 0 30 0 0 -139z
m90 -1 l0 -140 -25 0 -25 0 0 140 0 140 25 0 25 0 0 -140z m100 5 l0 -135 -25
0 -25 0 0 135 0 135 25 0 25 0 0 -135z m90 -17 l0 -108 -25 0 -25 0 0 132 0
131 25 -23 c24 -22 25 -29 25 -132z m-1060 17 l0 -125 -25 0 -25 0 0 109 c0
102 2 111 22 125 12 9 24 16 25 16 2 0 3 -56 3 -125z m-90 -23 c0 -43 -3 -81
-6 -84 -3 -3 -14 -4 -25 -1 -16 5 -19 14 -19 74 0 54 4 70 18 78 30 18 32 13
32 -67z m1250 -12 c0 -64 -1 -68 -25 -72 l-25 -5 0 83 0 84 25 -12 c23 -10 25
-16 25 -78z m-1350 5 c0 -30 -4 -55 -9 -55 -31 0 -41 14 -41 55 0 42 5 48 43
54 4 0 7 -24 7 -54z m1450 4 c0 -28 -5 -41 -19 -49 -34 -18 -41 -12 -41 38 0
57 2 61 35 54 21 -4 25 -10 25 -43z m-1550 11 c0 -34 0 -34 -35 -18 -31 14
-32 26 -2 38 34 14 37 12 37 -20z m1636 20 c19 0 18 -20 -3 -36 -29 -22 -43
-16 -43 17 0 24 3 30 16 25 9 -3 22 -6 30 -6z m-1220 -230 l44 0 0 -85 0 -85
-35 0 -35 0 0 50 0 50 -55 0 -55 0 0 41 0 42 46 -7 c26 -3 66 -6 90 -6z m904
-30 l0 -40 -50 0 -50 0 0 -50 0 -50 -45 0 -45 0 0 85 0 84 68 4 c37 2 79 4 95
5 25 2 27 -1 27 -38z m-272 -60 c3 -75 1 -80 -18 -80 -16 0 -20 -6 -20 -30 l0
-30 135 0 135 0 0 50 0 50 75 0 75 0 0 -50 0 -50 135 0 135 0 0 50 0 50 79 0
80 0 3 -52 3 -52 105 -48 105 -48 -2 -50 c-3 -62 -58 -231 -109 -332 -125
-251 -336 -463 -583 -586 -96 -49 -236 -101 -245 -91 -2 2 -16 119 -30 260
-14 142 -33 276 -41 299 -32 90 -113 168 -199 191 -93 25 -217 -16 -278 -93
-55 -70 -68 -124 -95 -398 -14 -140 -28 -257 -30 -259 -7 -9 -151 43 -238 87
-316 158 -550 426 -659 752 -19 58 -39 129 -44 159 l-10 53 82 37 c44 20 96
43 114 50 31 13 32 16 32 67 l0 54 80 0 80 0 0 -50 0 -50 135 0 135 0 0 50 0
50 80 0 80 0 0 -50 0 -50 120 0 120 0 0 30 c0 20 -5 30 -15 30 -12 0 -15 16
-15 83 l0 82 252 -2 253 -3 3 -80z m-165 -613 c75 -32 134 -113 144 -200 l5
-42 -64 70 c-63 67 -65 69 -77 47 -17 -31 -25 -28 -62 23 l-32 45 -36 -51 -35
-51 -20 27 -19 27 -59 -63 -59 -64 6 45 c10 75 61 147 130 183 37 20 134 22
178 4z m-59 -172 c16 -24 16 -27 -1 -50 -23 -31 -27 -31 -48 1 -15 23 -15 27
0 50 20 30 29 30 49 -1z m-82 -85 c29 -38 55 -70 58 -70 3 0 28 32 55 70 28
38 53 70 56 70 4 0 34 -30 67 -68 l60 -68 16 -164 c9 -91 18 -177 21 -192 4
-26 2 -27 -68 -39 -121 -22 -457 -12 -484 14 -1 2 6 88 17 191 15 141 24 193
38 210 44 56 98 115 104 116 4 0 31 -31 60 -70z"/>
<path d="M2990 2956 c0 -49 4 -65 16 -70 9 -3 76 -6 150 -6 121 0 136 2 154
20 38 38 15 78 -24 41 -20 -19 -34 -21 -139 -21 -64 0 -117 4 -117 9 0 4 33
11 73 15 114 11 148 18 154 33 9 24 -10 32 -57 23 -25 -4 -73 -11 -107 -14
-59 -7 -63 -6 -63 14 0 13 -7 20 -20 20 -18 0 -20 -7 -20 -64z"/>
<path d="M2950 2726 l0 -135 48 -3 47 -3 -50 -19 c-62 -24 -59 -21 -46 -45 10
-19 14 -19 50 -6 60 21 82 37 75 57 -5 16 2 18 67 18 61 0 70 -2 59 -14 -9
-12 -4 -20 31 -45 46 -34 59 -37 77 -19 19 19 15 26 -30 50 l-43 23 53 3 c44
3 52 6 52 22 0 18 -10 20 -172 22 l-173 3 -1 110 c-1 105 -2 110 -22 113 -22
3 -22 1 -22 -132z"/>
<path d="M3030 2755 l0 -105 125 0 125 0 0 105 0 105 -125 0 -125 0 0 -105z
m210 55 c0 -6 -35 -10 -85 -10 -50 0 -85 4 -85 10 0 6 35 10 85 10 50 0 85 -4
85 -10z m-5 -55 c0 -11 -129 -20 -152 -11 -8 3 -11 11 -8 16 9 14 160 9 160
-5z m5 -55 c0 -6 -35 -10 -85 -10 -50 0 -85 4 -85 10 0 6 35 10 85 10 50 0 85
-4 85 -10z"/>
<path d="M2362 2607 c-7 -8 -6 -18 4 -31 23 -32 17 -36 -46 -36 -53 0 -60 -2
-60 -20 0 -18 7 -20 80 -20 64 0 80 -3 80 -15 0 -12 -14 -15 -65 -15 -63 0
-65 -1 -65 -25 0 -24 2 -25 65 -25 51 0 65 -3 65 -15 0 -12 -16 -15 -86 -15
-83 0 -85 -1 -82 -22 3 -21 9 -23 86 -26 64 -2 82 -6 82 -17 0 -12 -16 -15
-75 -15 -73 0 -75 -1 -75 -25 0 -24 2 -25 65 -25 38 0 65 -4 65 -10 0 -14 -89
-70 -123 -77 -36 -7 -41 -17 -17 -38 18 -16 21 -16 63 4 25 12 61 38 82 58
l37 36 36 -36 c20 -20 59 -46 86 -58 l48 -21 21 20 20 21 -29 7 c-45 11 -96
39 -123 68 l-24 26 71 0 c70 0 72 1 72 25 0 25 -1 25 -80 25 -64 0 -80 3 -80
15 0 12 16 15 85 15 84 0 85 0 85 25 0 25 -1 25 -85 25 -69 0 -85 3 -85 15 0
12 14 15 65 15 63 0 65 1 65 25 0 24 -2 25 -65 25 -51 0 -65 3 -65 15 0 12 16
15 80 15 73 0 80 2 80 20 0 17 -7 20 -45 20 -25 0 -45 2 -45 4 0 3 4 16 10 30
8 21 6 27 -9 35 -16 9 -21 4 -34 -29 -15 -38 -18 -40 -58 -40 -32 0 -40 3 -32
11 9 9 8 19 -3 40 -16 32 -26 36 -42 16z"/>
<path d="M3753 2609 c-9 -9 -8 -18 4 -35 l15 -24 -61 0 c-58 0 -61 -1 -61 -25
0 -25 1 -25 85 -25 50 0 85 -4 85 -10 0 -6 -28 -10 -65 -10 -58 0 -65 -2 -65
-20 0 -16 8 -19 63 -22 91 -4 72 -23 -28 -26 -77 -2 -85 -5 -85 -22 0 -17 7
-20 45 -20 25 0 45 -4 45 -9 0 -5 3 -16 6 -25 5 -13 -2 -16 -45 -16 -44 0 -51
-3 -51 -20 0 -19 7 -20 200 -20 193 0 200 1 200 20 0 17 -7 20 -51 20 -43 0
-50 3 -45 16 3 9 6 20 6 25 0 5 18 9 40 9 33 0 40 3 40 20 0 18 -7 20 -85 20
-69 0 -85 3 -85 15 0 12 14 15 65 15 58 0 65 2 65 20 0 18 -7 20 -65 20 -37 0
-65 4 -65 10 0 6 33 10 80 10 79 0 80 0 80 25 0 23 -3 25 -50 25 -49 0 -49 0
-44 29 4 21 2 30 -11 35 -10 3 -19 5 -19 4 -1 -2 -6 -16 -12 -33 -8 -25 -15
-30 -48 -33 -26 -2 -36 0 -31 8 7 11 -20 60 -33 60 -5 0 -13 -5 -19 -11z m67
-264 c0 -29 -34 -36 -44 -9 -10 27 -7 34 19 34 20 0 25 -5 25 -25z m86 9 c-3
-9 -6 -20 -6 -25 0 -5 -9 -9 -20 -9 -15 0 -20 7 -20 25 0 20 5 25 26 25 20 0
25 -4 20 -16z"/>
<path d="M3710 2190 c0 -63 2 -70 20 -70 11 0 20 5 20 10 0 6 37 10 90 10 53
0 90 -4 90 -10 0 -5 9 -10 20 -10 19 0 21 5 18 68 l-3 67 -127 3 -128 3 0 -71z
m220 5 c0 -12 -17 -15 -90 -15 -73 0 -90 3 -90 15 0 12 17 15 90 15 73 0 90
-3 90 -15z"/>
<path d="M3107 1971 c-25 -42 -21 -73 13 -116 17 -21 31 -43 31 -49 3 -27 -4
-53 -22 -85 -16 -27 -17 -36 -7 -42 23 -15 28 -10 53 44 33 70 31 94 -10 146
-40 50 -39 47 -20 81 9 18 10 29 3 37 -15 19 -22 16 -41 -16z"/>
<path d="M3191 1986 c-6 -7 -14 -26 -17 -43 -5 -26 1 -38 40 -82 50 -57 57
-86 32 -146 -13 -30 -13 -34 1 -40 23 -8 34 6 48 62 15 61 6 96 -40 143 -36
36 -44 67 -24 87 8 8 6 14 -9 22 -15 8 -23 7 -31 -3z"/>
<path d="M3029 1963 c-21 -56 -21 -80 1 -122 24 -49 21 -68 -21 -116 -29 -32
-29 -34 -11 -44 15 -8 23 -6 39 12 56 63 66 103 37 159 -9 18 -14 43 -11 62 3
17 7 40 9 51 5 32 -30 31 -43 -2z"/>
<path d="M1974 4259 c-3 -6 18 -35 47 -65 44 -45 56 -52 67 -41 10 11 4 22
-39 65 -54 54 -63 59 -75 41z"/>
<path d="M4181 4246 c-12 -14 -7 -24 45 -77 l58 -62 -22 -18 c-42 -33 -153
-36 -223 -5 -12 5 -18 1 -21 -18 -5 -23 -1 -27 35 -37 22 -6 70 -9 106 -7 l67
3 -1 -105 0 -105 27 -3 c26 -3 26 -3 17 39 -12 53 2 157 27 194 l18 28 57 -64
c50 -56 58 -62 73 -50 16 13 14 17 -16 50 -18 20 -45 49 -58 64 l-25 29 39 34
c37 32 39 35 23 51 -16 16 -19 15 -50 -15 -18 -18 -36 -32 -40 -32 -4 0 -33
28 -65 61 -52 55 -59 60 -71 45z"/>
<path d="M1863 4140 c-37 -53 -40 -59 -22 -63 12 -3 24 2 33 15 8 11 19 17 26
13 8 -5 1 -18 -21 -41 -26 -26 -30 -37 -21 -46 9 -9 19 -5 43 18 l32 29 -6
-57 c-5 -53 -4 -58 14 -58 15 0 19 7 20 33 1 17 0 39 -1 47 -1 10 6 7 24 -9
20 -19 29 -22 38 -13 9 9 6 18 -12 37 l-23 25 35 0 c20 0 41 -7 48 -16 11 -13
5 -24 -45 -74 -46 -47 -57 -62 -47 -72 9 -9 21 -3 55 30 23 23 45 42 49 42 10
0 -9 -69 -26 -95 -21 -31 -20 -35 4 -35 24 0 48 44 57 105 l6 46 28 -27 c26
-25 49 -26 49 -1 0 6 -12 21 -27 33 -21 17 -24 24 -13 27 8 2 41 12 73 21 44
13 57 21 57 37 0 23 -3 23 -38 5 -15 -7 -43 -17 -62 -21 l-35 -7 48 49 c37 38
45 51 35 61 -10 10 -26 -1 -75 -50 -51 -50 -63 -59 -69 -45 -4 12 -13 16 -25
12 -11 -4 -19 -2 -19 4 0 6 -16 11 -37 11 -34 0 -35 1 -20 18 19 21 22 38 7
47 -6 4 -20 -5 -31 -19 -20 -26 -49 -35 -49 -16 0 6 7 22 16 35 16 24 16 25
-7 24 -17 0 -36 -16 -66 -59z"/>
<path d="M1588 3741 c-29 -26 -33 -35 -33 -81 0 -49 3 -55 46 -94 118 -107
270 -96 286 21 18 136 -180 189 -216 58 -5 -19 -7 -44 -4 -56 5 -19 4 -20 -15
-10 -11 6 -30 23 -41 37 -37 47 -22 97 34 112 37 10 39 36 3 40 -18 2 -37 -6
-60 -27z m221 -76 c47 -24 55 -74 19 -112 -25 -27 -48 -29 -87 -8 -48 24 -55
72 -16 110 28 29 45 31 84 10z"/>
<path d="M4597 3744 c-3 -3 2 -21 10 -40 9 -19 15 -35 12 -37 -2 -2 -51 -24
-109 -49 -57 -25 -105 -49 -107 -54 -1 -5 1 -15 6 -23 7 -10 41 1 162 54 85
37 155 68 157 69 10 10 -12 33 -28 29 -13 -3 -30 6 -50 26 -32 31 -42 36 -53
25z"/>
<path d="M4655 3501 c-59 -25 -78 -105 -37 -160 l23 -31 -46 0 c-75 0 -113 63
-65 108 13 12 18 25 14 35 -9 24 -19 21 -49 -15 -23 -27 -26 -38 -21 -72 8
-54 50 -92 109 -101 53 -8 156 16 198 46 53 38 55 132 4 177 -27 23 -89 29
-130 13z m114 -57 c27 -35 26 -59 -4 -89 -46 -47 -114 -28 -130 37 -5 21 -1
33 19 52 35 36 87 35 115 0z"/>
<path d="M1493 3448 c-43 -21 -67 -112 -42 -160 6 -11 26 -26 45 -34 30 -13
38 -13 63 1 28 14 30 14 36 -5 8 -25 54 -50 92 -50 81 0 135 127 83 193 -36
46 -121 56 -145 18 -4 -7 -15 -1 -28 14 -25 29 -72 39 -104 23z m83 -67 c27
-53 -25 -108 -75 -81 -26 13 -29 71 -5 95 23 23 66 15 80 -14z m152 -7 c47
-33 18 -124 -40 -124 -42 0 -68 25 -68 67 0 61 58 92 108 57z"/>
<path d="M4615 3120 l7 -80 -45 0 c-40 0 -45 -2 -40 -20 4 -16 14 -20 44 -20
35 0 39 -3 39 -25 0 -18 5 -25 20 -25 14 0 20 7 20 24 0 20 6 24 46 30 26 3
75 6 110 6 56 0 64 2 64 18 0 23 -218 172 -251 172 -20 0 -21 -3 -14 -80z
m125 -20 l75 -50 -80 2 -80 3 -3 48 c-2 26 1 47 5 47 4 0 42 -23 83 -50z"/>
<path d="M1583 3116 l-27 -24 -28 21 c-23 17 -34 19 -65 11 -73 -18 -95 -123
-38 -180 30 -30 88 -33 111 -6 15 18 17 18 45 -11 26 -26 35 -29 70 -24 51 7
76 29 90 81 30 110 -78 201 -158 132z m111 -48 c49 -70 -34 -157 -96 -101 -23
20 -24 80 -1 105 23 26 78 24 97 -4z m-170 -4 c22 -21 20 -60 -4 -84 -51 -51
-115 14 -80 81 13 23 62 26 84 3z"/>
<path d="M4595 2891 c-38 -16 -58 -50 -63 -106 -4 -52 -3 -56 31 -90 30 -30
42 -35 80 -35 29 0 53 7 70 20 30 24 51 81 43 116 -7 28 1 30 48 10 l33 -14
-10 -67 c-8 -53 -7 -69 4 -75 7 -5 16 -7 20 -4 11 6 31 166 22 174 -13 12
-164 52 -170 46 -4 -3 0 -24 7 -45 7 -22 10 -51 6 -65 -21 -83 -151 -61 -148
25 1 35 17 57 49 70 14 5 23 17 23 29 0 21 -12 24 -45 11z"/>
<path d="M1552 2825 c-78 -12 -145 -24 -148 -27 -6 -6 3 -14 49 -49 15 -11 27
-29 27 -40 0 -12 7 -19 20 -19 18 0 20 5 14 39 -7 46 -11 44 124 62 103 14
118 20 109 43 -8 20 -17 19 -195 -9z"/>
<path d="M1632 2436 c-74 -36 -135 -66 -137 -68 -2 -2 20 -51 48 -110 42 -87
55 -106 67 -99 12 8 9 21 -19 83 -45 98 -45 105 7 128 l43 20 37 -80 c20 -43
39 -79 42 -79 3 -1 11 3 18 8 10 6 5 25 -23 86 -19 42 -35 79 -35 81 0 4 76
44 83 44 3 0 22 -38 43 -85 36 -78 54 -99 68 -76 8 13 -84 211 -98 211 -6 0
-71 -29 -144 -64z"/>
<path d="M1792 2104 c-76 -110 -91 -138 -81 -150 17 -21 27 -19 143 37 59 28
109 49 111 47 2 -2 -28 -52 -66 -110 -60 -90 -69 -109 -60 -126 11 -20 17 -18
161 51 83 39 149 75 147 81 -10 31 -35 26 -136 -28 -58 -31 -106 -54 -108 -52
-3 2 26 49 62 104 50 75 65 106 60 121 -3 12 -13 21 -21 21 -8 0 -64 -25 -124
-55 -61 -30 -110 -52 -110 -48 0 5 34 53 74 108 61 83 72 102 62 117 -6 10
-13 18 -16 18 -3 0 -47 -61 -98 -136z"/>
<path d="M4352 2213 c-8 -14 6 -29 79 -86 104 -80 124 -105 115 -144 -9 -33
-68 -93 -92 -93 -23 0 -51 18 -149 94 -62 48 -78 56 -90 46 -8 -7 -15 -16 -15
-20 0 -12 170 -141 205 -156 111 -46 239 138 158 228 -27 30 -180 148 -192
148 -5 0 -14 -8 -19 -17z"/>
<path d="M4649 2159 c-11 -22 0 -38 28 -39 18 0 27 41 12 51 -21 13 -27 11
-40 -12z"/>
<path d="M2110 1758 c-47 -73 -86 -137 -88 -144 -4 -14 29 -28 37 -16 3 5 21
32 40 61 21 33 39 50 48 47 7 -3 41 -24 74 -47 l60 -41 -17 -26 c-10 -15 -28
-44 -42 -64 -24 -37 -23 -58 3 -58 19 0 188 259 181 276 -10 27 -31 13 -66
-41 l-35 -54 -27 17 c-14 9 -47 32 -72 49 l-46 33 36 55 c30 45 35 57 24 70
-7 8 -15 15 -19 15 -3 -1 -44 -60 -91 -132z"/>
<path d="M4038 1848 c-14 -12 -13 -24 18 -128 18 -63 34 -121 34 -128 0 -8
-44 27 -97 77 -53 50 -99 91 -103 91 -3 0 -14 -6 -23 -13 -17 -12 -16 -20 13
-140 16 -71 30 -131 30 -135 -1 -4 -43 38 -94 92 -88 94 -94 98 -114 84 -20
-14 -17 -18 97 -132 108 -107 120 -117 140 -107 26 15 26 12 -8 156 -16 66
-28 122 -26 124 2 2 48 -38 102 -88 54 -50 100 -91 103 -91 3 0 13 6 22 13 15
12 14 25 -24 175 -22 89 -44 162 -47 162 -4 0 -14 -6 -23 -12z"/>
<path d="M4298 1706 c-22 -16 -23 -30 -2 -46 12 -11 18 -10 35 6 19 19 19 21
2 36 -15 14 -21 14 -35 4z"/>
<path d="M2437 1539 c-64 -70 -117 -130 -117 -132 0 -3 8 -8 17 -11 11 -5 29
5 54 30 l37 36 62 -23 61 -24 -3 -52 c-3 -45 0 -53 18 -62 22 -10 22 -8 29
142 8 184 6 208 -20 217 -18 7 -39 -13 -138 -121z m118 -8 c-4 -39 -8 -71 -10
-71 -4 0 -80 32 -84 35 -2 2 18 29 45 59 26 31 50 54 52 51 2 -2 1 -36 -3 -74z"/>
<path d="M3095 1571 c-130 -32 -200 -168 -146 -286 53 -117 202 -161 303 -89
140 98 105 321 -56 369 -54 16 -57 16 -101 6z m137 -57 c20 -13 42 -33 48 -44
10 -18 9 -19 -16 -9 -15 5 -40 7 -55 4 -38 -9 -79 -59 -79 -97 0 -38 -48 -88
-85 -88 -38 0 -85 50 -85 91 0 43 35 114 69 138 62 45 138 47 203 5z"/>
</g>
</svg>
